<svg xmlns="http://www.w3.org/2000/svg" viewBox="0 0 729.05 716.1"><defs><style>.cls-1{fill:#ececec;}</style></defs><title>Team-Asset 3(T1)</title><g id="Layer_2" data-name="Layer 2"><g id="Export"><path class="cls-1" d="M65.82,66.35l6.15,46-15.35,2-5.75-43c-1.74-13-9-15.59-16.64-14.57-9.67,1.29-16.75,7.46-15.07,20.5l5.52,41.36-15.35,2L0,50.85,13.58,49l2.84,11.82C19.25,51.55,26.31,45.95,37,44.53,52.27,42.49,63.51,49.1,65.82,66.35Z"/><path class="cls-1" d="M77.68,11.43,96,9.67l1.48,15.42L79.17,26.85Zm4.26,29.36L97.38,39.3l6.76,70.17L88.7,111Z"/><path class="cls-1" d="M114.74,72.8c-1.51-22.33,10.88-37.37,34-38.93C166.35,32.68,180.8,39.6,182,57.1c.07,1,0,1.45,0,2.94l-14.74,1c.06-.93,0-1.78,0-2.64-.4-10.31-9.24-13.48-17.94-12.89-14.09,1-20.76,10.88-19.72,26.27s9.36,24.41,22.32,23.53c9.68-.65,17.66-5.82,16.87-17.39a21.21,21.21,0,0,0-.34-2.36l14.89-1c.13,1,.14,1.21.19,1.87,1.3,19.17-12.32,29.27-30.67,30.51C131.31,108.38,116.28,95.52,114.74,72.8Z"/><path class="cls-1" d="M192.67,67.7c-.81-22.63,12.84-37,34.45-37.8,21.85-.78,36.28,12.63,37.09,35.26.81,22.8-12.69,37.16-34.48,37.94C208.24,103.86,193.48,90.5,192.67,67.7Zm56.51-2c-.55-15.45-8.57-24.63-21.76-24.16-13,.46-20.12,10.18-19.57,25.63s8.39,24.74,21.35,24.28C242.39,91,249.73,81.21,249.18,65.69Z"/><path class="cls-1" d="M277.15.26,292.72,0l1.67,100.13-15.57.26Z"/><path class="cls-1" d="M380.43,88.66V99.8a50.66,50.66,0,0,1-9.91,1.19c-10.35,0-13.62-5.47-14.68-15.89-4.3,9.79-12.61,16.12-25.18,16.12-11.81,0-22.54-5.31-22.54-19.87,0-14.9,12.1-23.3,33.73-25.25a120.56,120.56,0,0,1,12.25-.49V50.92c0-9.52-7.09-13-14.89-13s-14.3,3.53-14.3,10.12a13.26,13.26,0,0,0,.77,4.32H312.11a32.26,32.26,0,0,1-.44-5.17C311.67,32.89,323.21,28,340,28c17,0,28.77,6.56,28.77,26.37V77c0,8.11,1.45,12.72,6.7,12.72A14.39,14.39,0,0,0,380.43,88.66ZM354.74,63.81a55.77,55.77,0,0,0-11.63.66c-12.76,1.22-20.2,6.39-20.2,15.46,0,7.81,5.37,11.21,12.55,11.21C349.49,91.13,354.74,78.34,354.74,63.81Z"/><path class="cls-1" d="M457.86,90.2l-.23,11.14a50.74,50.74,0,0,1-9.93,1c-10.35-.21-13.5-5.74-14.36-16.18-4.5,9.7-12.94,15.87-25.51,15.61C396,101.52,385.39,96,385.69,81.43c.3-14.9,12.58-23.06,34.24-24.57a120.69,120.69,0,0,1,12.26-.25l.1-4.68c.19-9.53-6.82-13.13-14.63-13.29s-14.37,3.24-14.5,9.83a13.27,13.27,0,0,0,.68,4.33l-13.56-.27a32.32,32.32,0,0,1-.34-5.18c.29-14.3,11.93-19,28.72-18.61,17,.34,28.64,7.14,28.24,26.95l-.46,22.61c-.17,8.11,1.19,12.75,6.44,12.86A14.41,14.41,0,0,0,457.86,90.2ZM432.68,64.83a55.74,55.74,0,0,0-11.64.43c-12.78,1-20.33,6-20.52,15.05-.16,7.81,5.14,11.31,12.32,11.46C426.87,92,432.38,79.37,432.68,64.83Z"/><path class="cls-1" d="M463.88,84.67a22.29,22.29,0,0,1,.61-4.3l15.77.6a11.77,11.77,0,0,0-.86,3.83C479.17,91,486,93.69,493.58,94c8.66.33,15.35-2.25,15.45-10.52s-7.24-9.38-17.34-10.95c-12.1-1.88-26.32-4.3-25.7-20.63.57-15.11,12.38-21.72,29.27-21.08,13.28.51,27,5.61,26.53,17.66a22.73,22.73,0,0,1-.71,4.62l-14.35-.61a9.56,9.56,0,0,0,.75-3.3c.22-5.8-6-8.74-13-9-7.74-.29-14,2.47-14.31,10-.31,8.27,8.6,8.93,18.66,10.57,11.72,1.86,25.72,5.2,25.1,21.6-.6,15.8-13.08,22.39-31.41,21.69C479.73,103.54,463.33,99.29,463.88,84.67Z"/><path class="cls-1" d="M635.5,43.7,600.25,109.4l-18.95-3.08-12.4-73.44,16,2.6,7.57,61.67,26.89-56.06Z"/><path class="cls-1" d="M669.37,153.41l-8.76,6.89a50.65,50.65,0,0,1-7.06-7.05c-6.4-8.14-4.12-14.09,3.41-21.37-10.35,2.67-20.46.06-28.24-9.83-7.3-9.28-9.77-21,1.68-30,11.71-9.21,25.8-4.9,40.7,10.89a120.44,120.44,0,0,1,8,9.32l3.68-2.9c7.49-5.89,5.82-13.6,1-19.74s-11.61-9.06-16.79-5A13.25,13.25,0,0,0,664,87.93l-8.38-10.66a32.32,32.32,0,0,1,3.79-3.55c11.24-8.85,22.21-2.79,32.6,10.4,10.53,13.38,12.63,26.67-2.94,38.92l-17.77,14c-6.37,5-9.1,9-5.86,13.14A14.41,14.41,0,0,0,669.37,153.41ZM673,117.85a55.76,55.76,0,0,0-7.71-8.73c-8.85-9.27-17.52-11.92-24.64-6.32-6.14,4.83-5.49,11.15-1.05,16.79C648.3,130.62,661.6,126.84,673,117.85Z"/><path class="cls-1" d="M700,220.31l-46.37,2.26-.75-15.47L696.22,205c13.1-.64,16.29-7.68,15.92-15.36-.47-9.75-6-17.32-19.15-16.74l-41.67,2-.75-15.47L721,156l.66,13.69-12,1.83c9,3.6,14,11.11,14.55,21.84C724.91,208.82,717.38,219.47,700,220.31Z"/><path class="cls-1" d="M707.1,322.06a50.07,50.07,0,0,1-11.43-1.14l-.36-14.44a31,31,0,0,0,9.26,1.28c6.56-.16,11.3-3,11.13-9.56-.14-5.46-4-12.3-17.64-12l-42.7,1.07L655,272l70.47-1.76.33,13-12.11,2.26c9.16,3.57,13.79,9.68,14,17.92C728,315.7,719.49,321.75,707.1,322.06Z"/><path class="cls-1" d="M691.41,344.38c-17-.08-24.46,7.63-24.29,21.66.12,9.55,3.81,17.69,12.74,17.58a12.87,12.87,0,0,0,2.53-.27l.17,13.59c-.76.07-1.52.11-2.34.12-16.38.21-24.49-13.13-24.71-30.9-.29-23.17,13-36.54,36-36.82,23.27-.29,37,13.13,37.28,34.81.24,19.76-10.9,32.95-33,33.23l-3.69-.13Zm8.71.25.46,37.58c12-.39,17.71-7,17.57-18.37C718,352.65,712.33,346.08,700.12,344.63Z"/><path class="cls-1" d="M692.05,422.26c-17-.39-24.6,7.19-24.68,21.22-.05,9.55,3.49,17.76,12.42,17.81a13,13,0,0,0,2.54-.22l-.08,13.59c-.76.06-1.52.08-2.34.08-16.38-.09-24.25-13.57-24.15-31.34.13-23.17,13.69-36.29,36.63-36.17,23.27.13,36.77,13.79,36.65,35.47-.11,19.75-11.49,32.74-33.61,32.62l-3.69-.2Zm8.7.4-.21,37.58c12-.17,17.84-6.63,17.9-18.05C718.5,431,712.94,424.34,700.75,422.67Z"/><path class="cls-1" d="M701.06,553.95l-46.42-1.53.51-15.48,43.39,1.43c13.11.43,16.86-6.33,17.12-14,.32-9.75-4.59-17.75-17.74-18.24l-41.71-1.37.51-15.48,70.47,2.32-.45,13.7-12.13.85c8.73,4.32,13.09,12.21,12.73,22.95C726.83,544.52,718.45,554.52,701.06,553.95Z"/><path class="cls-1" d="M687.72,581.59c-16.89-1.7-25.08,5.27-26.24,19.25-.79,9.52,2.11,18,11,18.71a12.85,12.85,0,0,0,2.55,0l-1.13,13.54c-.76,0-1.52,0-2.34-.11-16.33-1.36-23.13-15.4-21.66-33.11,1.92-23.08,16.45-35.12,39.31-33.22,23.19,1.93,35.6,16.59,33.81,38.2-1.64,19.68-14,31.75-36,29.92l-3.66-.48Zm8.64,1.08-3.11,37.45c11.94.75,18.3-5.23,19.24-16.61C713.42,592.36,708.39,585.27,696.37,582.67Z"/><path class="cls-1" d="M678.83,715.1l-45.21-10.6,3.54-15.08,42.26,9.91c12.77,3,17.78-2.9,19.53-10.38,2.23-9.5-1-18.31-13.81-21.37l-40.62-9.52L648,643l68.64,16.09-3.13,13.34-12.06-1.55c7.71,6,10.43,14.54,8,25C706,710.92,695.78,719.08,678.83,715.1Z"/></g></g></svg>