<svg xmlns="http://www.w3.org/2000/svg" viewBox="0 0 482.1 515.59"><defs><style>.cls-1{fill:#ececec;}</style></defs><title>Team-Asset 6(T1)</title><g id="Layer_2" data-name="Layer 2"><g id="Export"><path class="cls-1" d="M.13,76.35a22.29,22.29,0,0,1,1-4.23L16.75,74a11.78,11.78,0,0,0-1.16,3.75C14.85,83.91,21.43,87.12,29,88c8.6,1,15.48-1,16.25-9.24s-6.46-9.93-16.4-12.32C16.91,63.62,2.94,60.05,4.87,43.82,6.67,28.8,19,23.17,35.75,25.17c13.2,1.58,26.44,7.77,25,19.75a22.84,22.84,0,0,1-1.08,4.55L45.43,47.71a9.59,9.59,0,0,0,1-3.23c.69-5.76-5.24-9.19-12.22-10-7.69-.92-14.17,1.33-15.06,8.82-1,8.21,7.85,9.6,17.74,12,11.52,2.8,25.21,7.26,23.27,23.56C58.3,94.58,45.33,100.14,27.13,98,14.4,96.44-1.6,90.88.13,76.35Z"/><path class="cls-1" d="M77.1.07,95.49,0l.06,15.49-18.39.07Zm1.53,29.63,15.51-.06.26,70.5-15.51.06Z"/><path class="cls-1" d="M112.08,28.81l13.65-1.55,2.1,9.81c3.28-7.67,9.83-12.56,18.56-13.55,9.34-1.06,17.17,2.1,21.42,9.31,3.12-8,9.71-12.84,18.79-13.87,13.47-1.53,23.85,5.18,25.51,19.79l5.56,49L202.28,89.5l-5.19-45.74c-1.1-9.69-6.77-13.33-13.22-12.59-7.52.85-13.4,6.4-12,18.61l4.84,42.63L161.3,94.15l-5.14-45.35c-1.12-9.92-6.75-13.72-13.5-13-7.34.83-13.43,6.4-12,19.27l4.76,42L120,98.84Z"/><path class="cls-1" d="M227.81,51.19c.53-22.64,15-36.21,36.61-35.71,21.86.51,35.47,14.73,34.95,37.37-.53,22.8-14.85,36.35-36.65,35.84C241.23,88.19,227.28,74,227.81,51.19Zm56.52,1.31c.36-15.46-7.1-25.09-20.3-25.39-13-.3-20.68,9-21,24.44S249.92,76.73,262.88,77C276.08,77.33,284,68,284.34,52.5Z"/><path class="cls-1" d="M380.41,61.84l-14.16,44.23-14.75-4.72L364.74,60c4-12.49-1.48-18-8.8-20.29-9.3-3-18.33-.43-22.4,12.07L320.81,91.53l-14.75-4.72,21.49-67.14,13.06,4.18-2.5,11.9c6.55-7.21,15.33-9.25,25.56-6C378.39,34.48,385.72,45.27,380.41,61.84Z"/><path class="cls-1" d="M478.82,102.79,482.1,118l-55.62,12,32.18,20L462.56,168l-23.3-16-44.81,34.58-3.67-17,36.15-26.26-15-10.23-27.68,6-3.28-15.22Z"/><path class="cls-1" d="M424.22,186.73c22.57,1.9,35.24,17.16,33.43,38.71-1.83,21.79-16.86,34.51-39.43,32.62-22.73-1.91-35.39-17-33.56-38.75C386.46,197.87,401.49,184.82,424.22,186.73Zm-4.74,56.34c15.41,1.29,25.48-5.57,26.58-18.72,1.08-12.92-7.71-21.19-23.12-22.48s-25.56,5.38-26.65,18.3C395.19,233.32,404,241.77,419.48,243.07Z"/><path class="cls-1" d="M423.13,335.23l-46.29-3.61,1.2-15.44L422,319.6c12.42,1,16.47-5.62,17.07-13.28.76-9.73-3.79-18-16.9-19L380.54,284l1.2-15.44,99.81,7.79-1.2,15.44-40.48-3.16c7.76,4.8,11.42,12.62,10.62,22.88C449.29,327,440.48,336.58,423.13,335.23Z"/><path class="cls-1" d="M475.66,355.1l-1,15.54-99.95-6.21,1-15.54Z"/><path class="cls-1" d="M407.85,395.92c-17-.87-24.79,6.49-25.27,20.51-.32,9.55,3,17.85,11.92,18.15a12.83,12.83,0,0,0,2.55-.15L396.58,448c-.76,0-1.52,0-2.34,0-16.37-.55-23.85-14.25-23.25-32,.79-23.15,14.71-35.89,37.63-35.11,23.26.79,36.37,14.83,35.63,36.5-.67,19.74-12.41,32.41-34.52,31.66l-3.68-.3Zm8.68.65-1.28,37.56c12,.17,18-6.13,18.4-17.54C434,405.41,428.66,398.58,416.53,396.57Z"/><path class="cls-1" d="M422.35,515.59a50.07,50.07,0,0,1-11.41-1.4l0-14.44a30.87,30.87,0,0,0,9.23,1.49c6.56,0,11.37-2.78,11.35-9.31,0-5.46-3.68-12.39-17.36-12.39l-42.71.1,0-15.33,70.5-.16,0,13-12.16,2c9.07,3.78,13.57,10,13.58,18.24C443.36,509.69,434.74,515.56,422.35,515.59Z"/></g></g></svg>