<svg xmlns="http://www.w3.org/2000/svg" viewBox="0 0 549.91 491.47"><defs><style>.cls-1{fill:#ececec;}</style></defs><title>Team-Asset 5(T1)</title><g id="Layer_2" data-name="Layer 2"><g id="Export"><path class="cls-1" d="M68.19,4.12,66.38,104.25,53.68,104,52.11,91.1a24.12,24.12,0,0,1-22.53,13.83C10.83,104.58-.4,90.35,0,67.61.42,45,12,31.11,30.9,31.46A23.42,23.42,0,0,1,52,44.48l.79-40.64ZM53,68.6c.27-14.73-6.62-24.69-18.63-24.91C21.9,43.46,15.5,52.63,15.23,67.89S21,92.53,33.53,92.76C45.58,93,52.78,83.36,53,68.6Z"/><path class="cls-1" d="M145.32,30.84l-26.25,81.65c-3.57,11.2-7.48,21.32-21.59,21.91a57,57,0,0,1-11-.83L86,121.91a42.13,42.13,0,0,0,8.43.77c8.95-.37,10.49-6.84,12.46-14.31l.36-1.43L76.87,33.7l16.8-.7,19.5,56.25L129.44,31.5Z"/><path class="cls-1" d="M154.89.45,170.46,0l2.92,100.08-15.57.45Z"/><path class="cls-1" d="M259.11,88.67V99.82a50.72,50.72,0,0,1-9.91,1.18c-10.35,0-13.61-5.49-14.67-15.9-4.31,9.78-12.62,16.1-25.2,16.09-11.81,0-22.54-5.33-22.53-19.9,0-14.9,12.12-23.29,33.75-25.21a120.72,120.72,0,0,1,12.25-.48V50.91c0-9.53-7.08-13-14.88-13s-14.3,3.51-14.31,10.1a13.26,13.26,0,0,0,.77,4.32H190.83a32.37,32.37,0,0,1-.44-5.17c0-14.3,11.56-19.17,28.35-19.15,17,0,28.77,6.59,28.75,26.4l0,22.61c0,8.11,1.44,12.72,6.69,12.73A14.38,14.38,0,0,0,259.11,88.67ZM233.45,63.8a55.76,55.76,0,0,0-11.63.65c-12.76,1.21-20.21,6.37-20.21,15.44,0,7.81,5.36,11.21,12.54,11.22C228.17,91.12,233.43,78.33,233.45,63.8Z"/><path class="cls-1" d="M332.35,52.05l1.29,46.42-15.48.43L317,55.52c-.37-13.11-7.34-16.45-15-16.23-9.75.27-17.44,5.66-17.13,18.81L286,99.8l-15.48.43-2-70.47,13.7-.38,1.58,12.06c3.79-9,11.4-13.8,22.13-14.1C321.38,26.91,331.87,34.66,332.35,52.05Z"/><path class="cls-1" d="M437.07,117c-5.7,17-22.27,17-45.58,9.17-18.76-6.3-29.5-13.45-25.35-25.8,1.91-5.69,6-9.57,13.31-12.71-3.72-4-5.14-9-3.29-14.53,2.25-6.69,8.37-9.92,15.34-10.36-3.57-5.48-4.48-12-2-19.26,5.22-15.53,20.74-19.36,36.69-14a37.36,37.36,0,0,1,14.7,8.8C445.43,31.9,452,29.5,459.33,32a26.1,26.1,0,0,1,4.93,2.28l-3.54,10.53a19.88,19.88,0,0,0-5.16-2.71c-4-1.35-7.71-.81-10.62,1.51,3.84,5.6,5.14,12.54,2.5,20.42-5.28,15.72-20.31,17.7-36,12.42a43.62,43.62,0,0,1-15.69-8.71c-3.58,1.54-5.37,3.24-6.23,5.77-2,6.06,4.36,9.11,9.14,10.72l23.06,7.75C435.39,96.55,441.12,104.91,437.07,117Zm-15.34-2.13c2.94-8.75-5.51-11.62-11.6-13.63l-17.5-5.74a43.62,43.62,0,0,1-5.21-2.1c-4.41,2.59-7.15,5.53-8.33,9.06-2.61,7.78,4.65,11.3,16,15.12C410.56,122.74,419,123.09,421.73,114.84ZM403.9,49c-3.11,9.25,0,15.62,9.77,18.9,9.06,3,16.22.72,19.56-9.22s-.9-16.41-9.76-19.38C414.16,36.21,407.19,39.26,403.9,49Z"/><path class="cls-1" d="M459.05,85.93c20.81-8.92,39.17-1.39,47.69,18.48,8.61,20.1,1.33,38.39-19.48,47.31-21,9-39.23,1.58-47.82-18.46C431,113.5,438.09,94.91,459.05,85.93Zm22.28,52c14.21-6.09,19.87-16.88,14.67-29-5.11-11.92-16.76-15.09-31-9s-20,16.75-14.92,28.67C455.31,140.69,467.06,144,481.33,137.9Z"/><path class="cls-1" d="M549.86,233.28,449.73,233l0-12.7,12.89-1.77a24.11,24.11,0,0,1-14.17-22.32c.06-18.75,14.1-30.19,36.84-30.12,22.58.06,36.68,11.46,36.62,30.33a23.42,23.42,0,0,1-12.69,21.32l40.64.17Zm-64.69-14.15c14.73,0,24.58-7,24.61-19,0-12.52-9.24-18.77-24.5-18.82s-24.54,6.16-24.58,18.68C460.67,212,470.41,219.09,485.17,219.13Z"/><path class="cls-1" d="M532.78,304.12a25.89,25.89,0,0,1-5.12-.71l.5-14.38a18.19,18.19,0,0,0,5.37,1.23c4.55.16,5.82-3.15,5.95-6.94.33-9.58-7-9.84-11.52-10l-9.49-.33L518,286.83l-9.92-.35.48-13.85L448,270.5l.54-15.48,60.55,2.13.45-12.9,9.92.35-.45,12.9,4.71.17c14.59.51,26.12,6.77,25.45,25.92C548.73,296,544.31,304.53,532.78,304.12Z"/><path class="cls-1" d="M496.47,346.81a50.06,50.06,0,0,1-11.36-1.75l.41-14.44a30.93,30.93,0,0,0,9.18,1.77c6.56.19,11.44-2.44,11.63-9,.15-5.46-3.31-12.5-17-12.91l-42.7-1.21.43-15.33,70.47,2-.37,13L505,310.55c9,4.05,13.26,10.4,13,18.65C517.65,341.56,508.85,347.16,496.47,346.81Z"/><path class="cls-1" d="M480.21,367c-17-.32-24.57,7.29-24.59,21.32,0,9.55,3.57,17.74,12.5,17.76a12.92,12.92,0,0,0,2.54-.23l0,13.59c-.76.06-1.52.09-2.34.09-16.38,0-24.3-13.47-24.28-31.24,0-23.17,13.54-36.35,36.48-36.32,23.27,0,36.83,13.64,36.79,35.32,0,19.76-11.36,32.79-33.47,32.76l-3.69-.18Zm8.7.37L488.86,405c12-.22,17.81-6.71,17.83-18.13C506.7,375.66,501.11,369,488.92,367.38Z"/><path class="cls-1" d="M517.69,491.47,436.45,464c-11.14-3.74-21.21-7.8-21.59-21.91a57,57,0,0,1,1-11l11.66-.31a42.17,42.17,0,0,0-.9,8.42c.24,9,6.68,10.59,14.12,12.67l1.43.38L515.85,423l.45,16.81-56.53,18.67,57.49,17.12Z"/></g></g></svg>