<svg xmlns="http://www.w3.org/2000/svg" viewBox="0 0 582.92 357.32"><defs><style>.cls-1{fill:#ececec;}</style></defs><title>Team-Asset 4(T1)</title><g id="Layer_2" data-name="Layer 2"><g id="Export"><path class="cls-1" d="M70.11,1.53l-4.81,100-12.68-.61L51.44,88A24.12,24.12,0,0,1,28.5,101.12C9.78,100.21-1,85.66.08,62.95,1.16,40.39,13.19,26.82,32,27.73A23.42,23.42,0,0,1,52.76,41.38l2-40.59Zm-17.06,64c.71-14.72-5.87-24.87-17.87-25.45-12.5-.61-19.17,8.38-19.9,23.62s5,24.79,17.55,25.4C44.85,89.66,52.34,80.26,53.05,65.51Z"/><path class="cls-1" d="M151.15,92,151,103.13a50.65,50.65,0,0,1-9.93,1C130.7,104,127.52,98.48,126.62,88c-4.45,9.72-12.86,15.92-25.43,15.72-11.8-.18-22.46-5.65-22.23-20.22.23-14.89,12.47-23.11,34.12-24.72a121.09,121.09,0,0,1,12.26-.31l.07-4.68c.15-9.52-6.89-13.09-14.69-13.21s-14.35,3.3-14.45,9.9a13.26,13.26,0,0,0,.7,4.33l-13.55-.21A32.19,32.19,0,0,1,83,49.47c.22-14.3,11.84-19,28.62-18.74,17,.26,28.67,7,28.36,26.81l-.35,22.61c-.13,8.11,1.25,12.74,6.5,12.82A14.4,14.4,0,0,0,151.15,92Zm-25.3-25.25a55.75,55.75,0,0,0-11.64.48c-12.77,1-20.3,6.08-20.44,15.14-.12,7.81,5.19,11.29,12.37,11.4C120.18,94,125.63,81.28,125.85,66.74Z"/><path class="cls-1" d="M225,55.31l.91,46.44-15.48.3-.85-43.41c-.26-13.12-7.21-16.51-14.89-16.36-9.76.19-17.49,5.52-17.29,18.67l.82,41.73-15.48.3-1.38-70.5,13.7-.27,1.48,12.07c3.86-8.94,11.51-13.71,22.25-13.92C214.21,30.07,224.63,37.91,225,55.31Z"/><path class="cls-1" d="M237.9.92,256.28.23l.58,15.48-18.38.69Zm2.52,29.56,15.5-.58,2.62,70.46-15.5.58Z"/><path class="cls-1" d="M286.47,63.55c-.25,17,7.4,24.54,21.43,24.51,9.55,0,17.73-3.64,17.71-12.57a12.79,12.79,0,0,0-.25-2.54l13.59,0c.06.76.09,1.51.1,2.34,0,16.38-13.37,24.36-31.14,24.41-23.17.06-36.41-13.39-36.48-36.34C271.36,40,284.91,26.43,306.6,26.38c19.76-.05,32.85,11.22,32.91,33.34l-.17,3.69Zm.33-8.7,37.59-.1c-.27-12-6.79-17.78-18.21-17.75C295,37,288.37,42.64,286.8,54.85Z"/><path class="cls-1" d="M358.68,0l15.54.88-5.64,100L353,100Z"/><path class="cls-1" d="M440.24,8.12l15.07,3.94L430,108.95,414.9,105Z"/><path class="cls-1" d="M475.39,52.71l13.31,8L452.52,121.2l-13.31-8Zm14-26.17L505.16,36l-8,13.3-15.78-9.44Z"/><path class="cls-1" d="M574.53,123.33l-86.85,49.8-6.31-11,10.28-8a24.11,24.11,0,0,1-23.42-12.25c-9.32-16.27-2.88-33.19,16.85-44.5s37.49-8.4,46.87,8a23.42,23.42,0,0,1-.33,24.81L566.89,110Zm-63.09,20.07c12.78-7.33,17.79-18.34,11.82-28.76-6.22-10.86-17.38-11.64-30.62-4.05s-18.17,17.6-11.95,28.46C486.67,149.5,498.63,150.75,511.43,143.41Z"/><path class="cls-1" d="M520.56,173.07c22.37.65,36.15,14.43,35.49,37.56-.51,17.67-8.79,31.38-26.31,30.87-1,0-1.45-.1-2.93-.26l.43-14.77c.92.15,1.78.17,2.63.23,10.3.6,14.31-7.89,14.56-16.61.41-14.12-8.84-21.71-24.26-22.16s-25.2,7-25.57,19.94c-.28,9.7,4.09,18.13,15.69,18.47a21.31,21.31,0,0,0,2.38-.11l-.43,14.92c-1,0-1.22,0-1.88,0-19.21-.56-28-15.09-27.43-33.47C483.55,186.12,497.79,172.41,520.56,173.07Z"/><path class="cls-1" d="M527.06,320.25l-46.44-.58.19-15.48,44.06.54c12.46.15,16.07-6.68,16.17-14.37.12-9.76-5-17.71-18.11-17.88L481.21,272l.19-15.48,100.12,1.24-.19,15.48-40.6-.5c8.06,4.28,12.21,11.84,12.09,22.13C552.63,310.31,544.46,320.47,527.06,320.25Z"/><path class="cls-1" d="M552.27,337.38l1,15.49-70.36,4.45-1-15.49Zm29.48-3.29,1.16,18.36-15.46,1-1.16-18.36Z"/></g></g></svg>