<?xml version="1.0" encoding="utf-8"?>
<!-- Generator: Adobe Illustrator 21.1.0, SVG Export Plug-In . SVG Version: 6.00 Build 0)  -->
<svg version="1.1" xmlns="http://www.w3.org/2000/svg" xmlns:xlink="http://www.w3.org/1999/xlink" x="0px" y="0px"
	 viewBox="0 0 500 500" style="enable-background:new 0 0 500 500;" xml:space="preserve">
<style type="text/css">
	.st0{fill:#ECECEC;}
	.st1{clip-path:url(#SVGID_6_);}
	.st2{fill:none;stroke:#FFFF00;stroke-width:2;stroke-miterlimit:10;}
	.st3{fill:none;stroke:#ECECEC;stroke-width:9;stroke-linecap:round;stroke-miterlimit:10;}
	.st4{fill:#FF0000;}
	.st5{fill:#FF00FF;}
	.st6{fill:#FF8900;}
	.st7{fill:#FFFF00;}
	.st8{fill:none;stroke:#FFFF00;stroke-width:3;stroke-miterlimit:10;}
	.st9{fill:#00C1FF;}
	.st10{fill:none;stroke:#00C1FF;stroke-width:4.4812;stroke-miterlimit:10;}
	.st11{fill:none;stroke:#00C1FF;stroke-width:4;stroke-miterlimit:10;}
</style>
<g id="Design">
</g>
<g id="Export">
	<g>
		<g>
			<path class="st0" d="M373,398.3c-6.9-7.1-7.8-15-1.8-20.8c3.6-3.5,8.2-3.9,12.2-2.3l-4-4.8l3.4-3.3l31,31.9l-3.9,3.8l-13.3-13.6
				c1.3,4,0.8,8.1-2.8,11.6C387.7,406.5,379.8,405.4,373,398.3z M376.8,394.6c5,5.1,10.3,6.3,14.6,2.1c4.3-4.2,3.3-10-1.5-14.9
				c-4.8-4.9-10.5-6-14.8-1.9C370.8,384.1,371.9,389.4,376.8,394.6z"/>
			<path class="st0" d="M336.4,409.4l-2.3-3.5c1.1-1.1,2.1-2,3-2.6c3.6-2.4,6-1,9,2.9c-1.1-5.3,0.9-9.6,5.2-12.5
				c4.4-2.9,9.6-3.4,13.2,1.8c3.8,5.7,1,11.8-6.7,17.6c-1.3,1-2.8,2-4.4,3l1.3,2c2.4,3.7,6.2,3.3,9.6,1.1c3.2-2.1,4.9-5.2,3.1-7.9
				c-0.3-0.5-0.8-1-1.5-1.5l4.1-2.7c0.6,0.6,1.1,1.2,1.5,1.8c3.4,5.1,0.5,9.8-5.3,13.6c-6.1,4-11.9,4.3-16.5-2.5l-6.5-9.7
				c-1.8-2.6-3.4-3.9-5.2-2.7C337.5,408,337,408.6,336.4,409.4z M351.5,413.6c1.6-0.9,3-1.9,4.2-2.9c5.3-3.9,7.2-8.1,4.7-11.8
				c-2.1-3.2-5.2-3-8.2-1.1C346.2,401.8,348.1,408.5,351.5,413.6z"/>
			<path class="st0" d="M339.5,420.5c3.8,9,1.2,17-8,21c-6.7,2.9-13.5,2.3-16.6-5c-0.2-0.4-0.2-0.4-0.4-1l4.8-2.1
				c0.1,0.4,0.3,0.7,0.4,1.1c1.9,4.7,6.4,4.6,10.2,3c6.2-2.6,7.7-8.2,4.8-14.9c-2.9-6.7-8.1-9.4-13.9-6.9c-4.1,1.8-7,5.3-4.8,10.5
				c0.1,0.2,0.3,0.6,0.4,0.8l-4.8,2.1c-0.2-0.4-0.2-0.4-0.3-0.7c-3.3-7.8,0.9-13.7,7.8-16.7C327.7,408,335.6,411.3,339.5,420.5z"/>
			<path class="st0" d="M311.9,462.3l-5.4,1.3l-6-25.3l-8.9,15.1l-6.6,1.6l6.6-10.3L276,425.1l6-1.4l12.6,16.3l4.6-7.1l-3-12.6
				l5.4-1.3L311.9,462.3z"/>
			<path class="st0" d="M257.5,434.1l0.4,19.6l6.3-0.1l0.1,3.8l-6.5,0.1l-0.7,8.9l-4.5,0.1l-0.2-8.9l-8.3,0.2l-0.1-3.8l8.3-0.2
				l-0.4-18.5c-0.1-3.4-1.7-5-4.3-4.9c-1.2,0-2.6,0.4-4.1,1.1l-0.1-4.3c2-0.7,3.9-1.1,5.6-1.1C254.1,425.8,257.4,428.6,257.5,434.1z
				"/>
			<path class="st0" d="M239.4,442.4c-1.3,9.8-8.1,15.2-17.3,14c-9.3-1.2-14.4-8.2-13.1-18c1.3-9.9,8-15.3,17.3-14
				C235.5,425.5,240.7,432.5,239.4,442.4z M214.3,439.1c-1,7.2,2.1,12.2,8.4,13c6.2,0.8,10.4-3.2,11.4-10.4c1-7.2-2-12.2-8.2-13.1
				C219.5,427.8,215.2,431.8,214.3,439.1z"/>
			<path class="st0" d="M188.8,423.9l-6.9,18.3l5.9,2.2l-1.3,3.5l-6.1-2.3l-4,8l-4.2-1.6l3.1-8.3l-7.8-2.9l1.3-3.5l7.8,2.9l6.5-17.3
				c1.2-3.2,0.3-5.3-2.2-6.2c-1.1-0.4-2.5-0.6-4.2-0.5l1.5-4.1c2.1,0.1,4,0.5,5.6,1.1C188.6,415,190.7,418.8,188.8,423.9z"/>
			<path class="st0" d="M168.9,425c-4.8,8.6-13.1,11.1-21.3,6.6c-8.2-4.6-10.4-12.9-5.5-21.6c4.9-8.7,13.1-11.2,21.3-6.6
				C171.5,407.9,173.7,416.3,168.9,425z M146.8,412.6c-3.5,6.4-2.5,12.1,3,15.2c5.5,3.1,10.8,0.9,14.4-5.5
				c3.6-6.4,2.6-12.1-2.8-15.2C155.8,404.1,150.3,406.2,146.8,412.6z"/>
			<path class="st0" d="M114,387.1c6.4-7.7,14-9.4,20.6-3.9c3.7,3.1,4.4,7.2,3.5,11.2l12-14.4l4.2,3.5L126,417.4l-3.6-3l3.5-5.1
				c-3.7,1.8-8.3,1.9-12.1-1.3C107.3,402.6,107.6,394.8,114,387.1z M118.1,390.5c-4.8,5.7-5.2,10.9-0.5,14.9
				c4.4,3.7,10.2,2.2,14.6-3.1c4.4-5.2,4.8-11.2,0.4-14.9C127.8,383.5,122.8,384.9,118.1,390.5z"/>
			<path class="st0" d="M58.1,277.7c9.7-2.2,16.9,1.1,18.8,9.2c1.2,4.9-0.9,9-4.3,11.6l6.2-0.9l1.1,4.6l-43.4,10.1l-1.2-5.3
				l18.6-4.4c-4-1-7.3-3.5-8.4-8.4C43.4,286.1,48.5,280,58.1,277.7z M59.3,283c-6.9,1.6-10.7,5.6-9.3,11.4c1.4,5.8,6.9,8,13.5,6.4
				c6.7-1.5,10.6-5.9,9.3-11.7C71.4,283.2,66.2,281.3,59.3,283z"/>
			<path class="st0" d="M67.4,240.7l4.2-0.2c0.4,1.6,0.6,2.8,0.7,4c0.2,4.3-2.3,5.6-7.1,6.2c5.1,1.8,7.8,5.7,8,10.9
				c0.2,5.3-2,10-8.3,10.3c-6.8,0.3-10.6-5.2-11.7-14.8c-0.2-1.7-0.3-3.4-0.3-5.3l-2.4,0.1c-4.4,0.2-6.1,3.6-5.9,7.6
				c0.2,3.8,2,6.9,5.2,6.8c0.6,0,1.3-0.2,2-0.5l0.2,4.9c-0.8,0.2-1.6,0.3-2.3,0.3c-6.1,0.3-8.6-4.6-9-11.6
				c-0.3-7.3,2.4-12.4,10.6-12.8L63,246c3.2-0.1,5.1-0.9,5-3.1C68,242.3,67.8,241.6,67.4,240.7z M56,251.4c0,1.9,0.1,3.5,0.4,5.1
				c0.7,6.5,3.2,10.3,7.7,10.1c3.8-0.2,5.3-2.9,5.1-6.5C68.9,252.9,62.2,251.1,56,251.4z"/>
			<path class="st0" d="M56.3,237.7c-9.7-1.3-15.2-7.7-13.9-17.6c1-7.2,5-12.8,12.8-11.7c0.4,0.1,0.4,0.1,1.1,0.2l-0.7,5.2
				c-0.4-0.1-0.7-0.1-1.1-0.2c-5-0.8-7.3,3.2-7.8,7.2c-0.9,6.7,3.1,10.8,10.3,11.8c7.2,1,12.2-2.1,13.1-8.4c0.6-4.4-0.9-8.8-6.5-9.5
				c-0.2,0-0.7-0.1-0.9-0.1l0.7-5.2c0.5,0,0.5,0,0.8,0.1c8.4,1.1,11.3,7.8,10.3,15.3C73.1,233.9,66.2,239,56.3,237.7z"/>
			<path class="st0" d="M34.6,192.4l1.7-5.3l24.8,7.9l-8.4-15.4l2.1-6.5l5.4,11l24.7-3.3l-1.9,5.9l-20.5,2.4l3.8,7.6l12.3,3.9
				l-1.7,5.3L34.6,192.4z"/>
			<path class="st0" d="M86.9,160.3l-17-9.8l-3.2,5.5l-3.3-1.9l3.2-5.6l-7.3-5.2l2.2-3.9l7.7,4.4l4.2-7.2l3.3,1.9l-4.2,7.2l16,9.3
				c2.9,1.7,5.1,1.1,6.5-1.1c0.6-1,1-2.4,1.2-4.1l3.8,2.2c-0.4,2-1.1,3.9-2,5.4C95.7,161.7,91.7,163.1,86.9,160.3z"/>
			<path class="st0" d="M89.1,140.5c-7.7-6.2-8.9-14.8-3-22.1c5.9-7.4,14.4-8.1,22.2-2c7.8,6.2,9,14.7,3.1,22.1
				C105.6,145.9,96.9,146.8,89.1,140.5z M104.9,120.7c-5.7-4.5-11.5-4.5-15.5,0.5c-3.9,4.9-2.6,10.5,3.1,15.1
				c5.7,4.6,11.5,4.6,15.4-0.3C111.9,131,110.7,125.3,104.9,120.7z"/>
			<path class="st0" d="M131,106.6l-12.2-15.3l-4.9,3.9l-2.4-3l5.1-4l-4.9-7.5l3.5-2.8l5.5,7l6.5-5.2l2.4,3l-6.5,5.2l11.5,14.5
				c2.1,2.7,4.4,2.9,6.4,1.3c0.9-0.7,1.8-1.9,2.6-3.3l2.7,3.4c-1.1,1.7-2.5,3.2-3.8,4.3C138.7,111.1,134.4,110.9,131,106.6z"/>
			<path class="st0" d="M140.3,89c-4.9-8.6-2.8-17,5.3-21.6c8.2-4.7,16.4-2.2,21.3,6.4c5,8.7,2.9,17-5.3,21.7
				C153.6,100.1,145.3,97.7,140.3,89z M162.3,76.4c-3.6-6.3-9.1-8.4-14.6-5.3c-5.5,3.1-6.3,8.8-2.7,15.1c3.6,6.3,9,8.5,14.5,5.4
				C165,88.5,165.9,82.8,162.3,76.4z"/>
			<path class="st0" d="M201.1,61.5c3.3,9.4,0.8,16.9-7.3,19.7c-4.5,1.6-8.5,0.1-11.4-2.8l6.1,17.8l-5.2,1.8l-14.4-41.8l4.4-1.5
				l2.6,5.6c0.4-4.1,2.7-8.1,7.3-9.7C191.3,47.8,197.8,52.1,201.1,61.5z M196,63.2c-2.4-7-6.6-10.1-12.5-8.1
				c-5.4,1.9-7.1,7.6-4.9,14.1c2.2,6.5,7.1,9.9,12.5,8C197,75.3,198.4,70.2,196,63.2z"/>
			<path class="st0" d="M323.6,69.9c-3,9.4-9.7,13.9-17.5,11.4c-4.8-1.6-7.3-5.4-7.7-9.7l-2.4,5.8l-4.5-1.4l13.7-42.3l5.2,1.7
				l-5.8,18.1c2.9-3,6.8-4.5,11.5-2.9C324,53.1,326.6,60.6,323.6,69.9z M318.5,68.3c2.2-6.8,0.7-12-5-13.9
				c-5.7-1.8-10.4,1.8-12.5,8.2c-2.1,6.5-0.4,12.1,5.3,14C312.1,78.4,316.3,75,318.5,68.3z"/>
			<path class="st0" d="M350.5,97l-2,3.7c-1.5-0.5-2.8-0.9-3.7-1.4c-3.8-2-3.7-4.9-1.7-9.3c-4.2,3.5-8.9,3.7-13.5,1.2
				c-4.7-2.5-7.6-6.9-4.5-12.5c3.3-6,10-6.4,18.7-2.3c1.5,0.7,3.1,1.5,4.7,2.5l1.2-2.1c2.1-3.9,0-7.1-3.5-9
				c-3.3-1.8-6.9-1.9-8.5,0.9c-0.3,0.6-0.5,1.2-0.7,2l-4.3-2.3c0.3-0.8,0.6-1.5,0.9-2.1c2.9-5.4,8.4-5,14.6-1.7
				c6.4,3.5,9.4,8.5,5.5,15.7l-5.6,10.2c-1.5,2.8-1.9,4.8,0.1,5.9C348.8,96.7,349.6,96.9,350.5,97z M347.2,81.8
				c-1.6-1-3.1-1.7-4.5-2.3c-5.9-2.8-10.5-2.6-12.7,1.4c-1.8,3.3-0.2,6,2.9,7.7C339.2,92,344.3,87.2,347.2,81.8z"/>
			<path class="st0" d="M358.8,89.1c6.1-7.6,14.5-9.1,22.3-2.8c5.7,4.5,8.4,10.9,3.4,17c-0.2,0.3-0.3,0.3-0.7,0.8l-4.1-3.3
				c0.3-0.3,0.5-0.6,0.8-0.9c3.2-3.9,1-7.9-2.2-10.4c-5.2-4.2-10.9-2.9-15.4,2.8c-4.6,5.7-4.5,11.5,0.4,15.5c3.5,2.8,8,3.7,11.5-0.7
				c0.1-0.2,0.4-0.6,0.5-0.7l4.1,3.3c-0.3,0.4-0.3,0.4-0.5,0.6c-5.3,6.6-12.5,5.7-18.4,0.9C353.4,105.4,352.6,96.8,358.8,89.1z"/>
			<path class="st0" d="M408.7,93.7l3.7,4.2l-19.5,17.3l17.6,0.7l4.5,5.1l-12.3-1l-9.9,22.9l-4.1-4.6l8.5-18.8l-8.4-0.7l-9.7,8.6
				l-3.7-4.2L408.7,93.7z"/>
			<path class="st0" d="M409.4,155.1l17.1-9.5l-3.1-5.5l3.3-1.8l3.1,5.7l8.2-3.6l2.2,3.9l-7.8,4.3l4,7.3l-3.3,1.8l-4-7.3l-16.2,9
				c-3,1.6-3.6,3.8-2.4,6.1c0.6,1,1.5,2.1,2.9,3.1l-3.8,2.1c-1.5-1.4-2.8-2.9-3.6-4.4C403.7,162,404.6,157.8,409.4,155.1z"/>
			<path class="st0" d="M425.3,167.2c9.3-3.4,17.2,0,20.5,8.8c3.3,8.8-0.5,16.5-9.8,20c-9.4,3.5-17.2,0.1-20.5-8.7
				C412.2,178.5,415.9,170.7,425.3,167.2z M434.1,190.9c6.8-2.5,9.8-7.6,7.6-13.5c-2.2-5.9-7.7-7.7-14.5-5.2
				c-6.9,2.5-9.9,7.5-7.7,13.4C421.7,191.6,427.2,193.5,434.1,190.9z"/>
			<path class="st0" d="M432.7,220.5l19.4-2.6l-0.8-6.2l3.7-0.5l0.8,6.4l8.9-0.3l0.6,4.4l-8.8,1.2l1.1,8.3l-3.7,0.5l-1.1-8.3
				l-18.4,2.4c-3.4,0.4-4.8,2.2-4.4,4.8c0.2,1.2,0.7,2.5,1.5,4l-4.3,0.6c-0.9-1.9-1.5-3.8-1.7-5.4
				C424.9,224.8,427.2,221.2,432.7,220.5z"/>
			<path class="st0" d="M443,237.6c9.9,0.2,16,6.3,15.8,15.7c-0.2,9.4-6.5,15.2-16.4,15c-10-0.2-16.1-6.2-15.9-15.7
				C426.7,243.4,433,237.4,443,237.6z M442.5,262.9c7.3,0.1,11.9-3.4,12-9.8c0.1-6.3-4.3-10-11.6-10.1c-7.3-0.1-11.9,3.4-12.1,9.7
				C430.7,259,435.2,262.8,442.5,262.9z"/>
			<path class="st0" d="M435.4,303.8c-9.8-2.1-14.9-8-13.1-16.4c1-4.7,4.3-7.3,8.2-8.3l-18.4-3.9l1.1-5.3l43.3,9.1l-1,4.5l-6.1-0.7
				c3.3,2.4,5.5,6.4,4.5,11.3C452.2,302.5,445.1,305.9,435.4,303.8z M436.5,298.6c7.3,1.5,12.1-0.5,13.4-6.5
				c1.2-5.6-2.8-10-9.6-11.4c-6.7-1.4-12.2,1-13.3,6.6C425.6,293.3,429.3,297.1,436.5,298.6z"/>
		</g>
		<g>
			<g>
				<g>
					<path class="st0" d="M428.6,354.1c0.8-2.1,1.7-4,2.3-6.1c2.4-8.3,0.5-15.6-5.2-21.9c-1.7-1.9-3.9-3.5-5.8-5.2
						c-0.2-0.1-0.3-0.3-0.5-0.5l-1.9-1.1l-0.8,1.5c2.1,1.7,3.8,3.8,4.9,6.2c2.2,4.9,2.1,9.9,0.5,14.8c-0.7,2.3-1.7,4.5-2.7,6.9
						l-8.2-4.6c1.1,8.1,2.2,15.9,3.3,23.9c7.3-3.2,14.6-6.3,22-9.6L428.6,354.1z M413.5,347.5l6.5,3.7c2.2-4,4-8,4.7-12.5
						c0.7-4.5,0.2-8.8-1.9-13.2c7.5,7,9.4,16.3,5.2,25.4c-0.6,1.3-1.2,2.5-1.8,3.8l6.4,3.6c-5.7,2.5-11.1,4.8-16.7,7.2
						C415.1,359.6,414.3,353.7,413.5,347.5z"/>
				</g>
			</g>
			<g>
				<path class="st0" d="M432.6,358.4c-5.7,2.5-11.1,4.8-16.7,7.2c-0.8-6-1.6-11.9-2.5-18.1l6.5,3.7c2.2-4,4-8,4.7-12.5
					c0.7-4.5,0.2-8.8-1.9-13.2c7.5,7,9.4,16.3,5.2,25.4c-0.6,1.3-1.2,2.5-1.8,3.8L432.6,358.4z"/>
			</g>
		</g>
		<g>
			<g>
				<g>
					<path class="st0" d="M70.7,351.4c1.3,1.8,2.5,3.6,3.8,5.2c5.6,6.5,12.8,8.9,21.2,7.6c2.6-0.4,5-1.4,7.5-2.1
						c0.2-0.1,0.4-0.1,0.7-0.2l1.9-1l-0.8-1.5c-2.6,0.8-5.2,1.1-7.9,0.7c-5.3-0.8-9.4-3.6-12.7-7.6c-1.5-1.9-2.8-3.9-4.3-6l8.3-4.4
						c-7.4-3.5-14.5-6.8-21.8-10.3c-1.3,7.9-2.6,15.7-4,23.7L70.7,351.4z M84.5,342.2l-6.6,3.5c2.1,4,4.5,7.7,7.9,10.8
						c3.4,3,7.3,5,12.1,5.5c-10,2.5-18.8-1-24.1-9.4c-0.7-1.2-1.5-2.4-2.2-3.6l-6.5,3.4c1-6.1,2-12,3-17.9
						C73.5,337.1,78.9,339.6,84.5,342.2z"/>
				</g>
			</g>
			<g>
				<path class="st0" d="M65,352.4c1-6.1,2-12,3-17.9c5.5,2.6,10.9,5.1,16.5,7.8l-6.6,3.5c2.1,4,4.5,7.7,7.9,10.8
					c3.4,3,7.3,5,12.1,5.5c-10,2.5-18.8-1-24.1-9.4c-0.7-1.2-1.5-2.4-2.2-3.6L65,352.4z"/>
			</g>
		</g>
		<g>
			<g>
				<g>
					<path class="st0" d="M256.4,42.9c-2.2,0.1-4.4,0.1-6.5,0.4c-8.5,1.1-14.5,5.8-17.9,13.6c-1.1,2.4-1.6,5-2.4,7.4
						c-0.1,0.2-0.1,0.4-0.2,0.6l-0.2,2.2l1.7,0.2c0.7-2.6,1.9-5,3.7-7c3.5-4,8.2-5.9,13.3-6.5c2.4-0.3,4.8-0.2,7.4-0.3l-0.9,9.4
						c6.9-4.3,13.6-8.4,20.5-12.7c-5.9-5.4-11.7-10.7-17.7-16.2L256.4,42.9z M256.6,59.5l0.7-7.4c-4.5-0.4-9-0.4-13.3,0.7
						c-4.4,1.2-8.1,3.4-11.2,7.1c3.4-9.8,11.1-15.2,21.1-15.1c1.4,0,2.8,0.1,4.2,0.1l0.7-7.3c4.6,4.2,8.9,8.2,13.4,12.3
						C266.9,53.1,261.8,56.2,256.6,59.5z"/>
				</g>
			</g>
			<g>
				<path class="st0" d="M258.7,37.6c4.6,4.2,8.9,8.2,13.4,12.3c-5.2,3.2-10.2,6.3-15.5,9.6l0.7-7.4c-4.5-0.4-9-0.4-13.3,0.7
					c-4.4,1.2-8.1,3.4-11.2,7.1c3.4-9.8,11.1-15.2,21.1-15.1c1.4,0,2.8,0.1,4.2,0.1L258.7,37.6z"/>
			</g>
		</g>
	</g>
</g>
<g id="Viewport">
</g>
<g id="Webkit">
</g>
</svg>
