<svg xmlns="http://www.w3.org/2000/svg" viewBox="0 0 104.62 97.9">
<defs><style>.cls-1{fill:#ececec;}.cls-2{fill:none;stroke:#ececec;stroke-linecap:round;stroke-miterlimit:10;stroke-width:9px;}</style></defs>
<title>Menu-UnmutedAsset 2(T1)</title>
<g id="Layer_2" data-name="Layer 2">
<g id="Export">
<path class="cls-1" d="M79.76,94.77a4.06,4.06,0,0,1-4.31,3.13A8.9,8.9,0,0,1,71.86,97l-18.31-8L32.41,79.85a1.4,1.4,0,0,0-1.15,0Q24,82.61,16.71,85.37a4.76,4.76,0,0,1-6.33-2.82c-.75-1.94-1.48-3.89-2.22-5.83L5.34,69.31l-5-13.13a4.76,4.76,0,0,1,1.8-5.86,5.09,5.09,0,0,1,.9-.46c.69-.27,1.37-.53,2.06-.78h0L18,44.17a1.48,1.48,0,0,0,.84-.79l3.34-7.59c.53-1.16,1-2.25,1.54-3.34L32,14.53C33.63,10.88,35.3,7.23,37,3.6A6.57,6.57,0,0,1,39.47.76a4.33,4.33,0,0,1,6,1.14,9,9,0,0,1,1.28,2.41L66.06,55.07l9.49,25q2,5.16,3.91,10.34A7.24,7.24,0,0,1,79.76,94.77Z"/>
<path class="cls-2" d="M72.12,5.68A47.13,47.13,0,0,1,96,67.9"/>
<path class="cls-2" d="M64.07,22.78a29.57,29.57,0,0,1,15,39"/>
</g>
</g>
</svg>