<svg xmlns="http://www.w3.org/2000/svg" viewBox="0 0 132.85 97.91"><defs><style>.cls-1{fill:#ececec;}</style></defs><title>Menu-MutedAsset 1(T1)</title><g id="Layer_2" data-name="Layer 2"><g id="Export"><path class="cls-1" d="M40,35.79l1.54-3.34L49.8,14.53c1.68-3.65,3.35-7.3,5.06-10.93A6.65,6.65,0,0,1,57.33.77a4.33,4.33,0,0,1,6,1.13,9,9,0,0,1,1.27,2.41q9.64,25.38,19.28,50.76a1.18,1.18,0,0,0,.68.72l44.63,20.05a9.08,9.08,0,0,1,1.82,1,4.67,4.67,0,0,1,1,6.32,4.76,4.76,0,0,1-6.13,1.59l-.67-.33L2.92,29.45a4.73,4.73,0,1,1,3.8-8.66l4.08,1.84,28.82,13C39.74,35.64,39.85,35.71,40,35.79Z" transform="translate(0 0)"/><path class="cls-1" d="M23.2,69.32q-2.49-6.56-5-13.13A4.77,4.77,0,0,1,20,50.33a4.92,4.92,0,0,1,.9-.46c1.41-.55,2.83-1.09,4.26-1.61a.9.9,0,0,1,.62,0q33.34,15,66.67,30a.84.84,0,0,1,.41.42c1.49,3.91,3,7.82,4.44,11.74a7.18,7.18,0,0,1,.3,4.39,4.07,4.07,0,0,1-4.31,3.14A9.12,9.12,0,0,1,89.71,97l-18.31-8L50.26,79.85a1.38,1.38,0,0,0-1.14,0q-7.27,2.79-14.56,5.54a4.76,4.76,0,0,1-6.33-2.82c-.75-1.94-1.48-3.89-2.22-5.83Z" transform="translate(0 0)"/></g></g></svg>