<?xml version="1.0" encoding="utf-8"?>
<!-- Generator: Adobe Illustrator 21.1.0, SVG Export Plug-In . SVG Version: 6.00 Build 0)  -->
<svg version="1.1" xmlns="http://www.w3.org/2000/svg" xmlns:xlink="http://www.w3.org/1999/xlink" x="0px" y="0px"
	 viewBox="0 0 3500 3500" style="enable-background:new 0 0 3500 3500;" xml:space="preserve">
<style type="text/css">
	.st0{fill:#E8E8E8;}
	.st1{clip-path:url(#SVGID_6_);}
	.st2{fill:none;stroke:#FFFF00;stroke-width:2;stroke-miterlimit:10;}
	.st3{display:none;}
	.st4{display:inline;}
	.st5{display:none;fill:none;stroke:#EB2626;stroke-width:1.0231;stroke-miterlimit:10;}
	.st6{fill:none;stroke:#E8E8E8;stroke-width:9;stroke-linecap:round;stroke-miterlimit:10;}
	.st7{clip-path:url(#SVGID_10_);}
	.st8{display:inline;fill:none;stroke:#E8E8E8;stroke-width:26.8951;stroke-linecap:round;stroke-miterlimit:10;}
	.st9{fill:#FF0000;}
	.st10{fill:#FF00FF;}
	.st11{fill:#FF8500;}
	.st12{fill:#FFFF00;}
	.st13{fill:none;stroke:#FFFF00;stroke-width:3;stroke-miterlimit:10;}
	.st14{fill:#00BDFF;}
	.st15{fill:none;stroke:#00BDFF;stroke-width:4.4812;stroke-miterlimit:10;}
	.st16{fill:none;stroke:#00BDFF;stroke-width:4;stroke-miterlimit:10;}
</style>
<g id="Design">
</g>
<g id="Export">
	
		<image style="display:none;overflow:visible;" width="634" height="634" xlink:href="../../../../../../../Desktop/Screen Shot 2018-06-25 at 19.29.21.png"  transform="matrix(5.5205 0 0 5.5205 0 0)">
	</image>
	<g class="st3">
		<g class="st4">
			<g>
				<path class="st0" d="M1515.7,1447.3c-1.6,6.1-6.2,9.4-12.9,9.4c-3.8,0-7.3-1.1-10.7-2.6c-18.2-7.9-36.5-15.9-54.7-23.8
					c-21.1-9.2-42.1-18.3-63.2-27.5c-1.2-0.5-2.2-0.5-3.4-0.1c-14.5,5.6-29,11.1-43.5,16.6c-7.9,3-15.9-0.5-18.9-8.4
					c-2.2-5.8-4.4-11.6-6.6-17.4c-2.8-7.4-5.6-14.8-8.4-22.1c-5-13.1-9.9-26.1-14.9-39.2c-2.6-6.8-0.4-13.7,5.4-17.5
					c0.8-0.5,1.8-1,2.7-1.4c2.1-0.8,4.1-1.6,6.2-2.3l-0.1,0l38.5-14.6c1.1-0.4,2-1.3,2.5-2.4l10-22.7c1.6-3.5,3.1-6.7,4.6-10
					c8.2-17.8,16.4-35.7,24.7-53.6c5-10.9,10-21.8,15.1-32.7c1.6-3.5,4.1-6.4,7.4-8.5c6.3-4,13.3-2.7,18,3.4
					c1.7,2.2,2.8,4.6,3.8,7.2c19.2,50.6,38.4,101.1,57.6,151.7l28.4,74.6c3.9,10.3,7.9,20.6,11.7,30.9
					C1516.4,1438.4,1516.9,1442.8,1515.7,1447.3z"/>
			</g>
		</g>
		<path class="st8" d="M1492.9,1181c71.1,31.6,103.1,114.8,71.5,185.9"/>
		<path class="st8" d="M1468.8,1232.1c44.6,19.8,64.7,72,44.8,116.6"/>
	</g>
	<g>
		<g>
			<path class="st0" d="M1343.6,1271c1.6-3.5,3.1-6.7,4.6-10c8.2-17.9,16.4-35.7,24.7-53.6c5-10.9,10-21.8,15.1-32.7
				c1.6-3.5,4.1-6.4,7.4-8.5c6.3-4,13.3-2.7,18.1,3.4c1.7,2.2,2.8,4.7,3.8,7.2c19.2,50.6,38.4,101.1,57.6,151.7c0.4,1.1,1,1.7,2,2.2
				c44.5,20,88.9,39.9,133.4,59.9c1.9,0.8,3.8,1.7,5.4,2.9c5.9,4.5,7.1,12.6,3,18.9c-3.9,6-11.9,8.1-18.3,4.7c-0.7-0.3-1.3-0.7-2-1
				c-121.8-54.8-243.7-109.5-365.5-164.3c-6.9-3.1-10.2-10.4-8.1-17.3c2.7-8.8,12.5-11.7,19.5-8.6c4.1,1.8,8.1,3.7,12.2,5.5
				c28.7,12.9,57.4,25.8,86.1,38.7C1342.8,1270.5,1343.1,1270.8,1343.6,1271z"/>
			<path class="st0" d="M1293.3,1371.2c-5-13.1-9.9-26.2-14.9-39.2c-2.6-6.8-0.4-13.7,5.4-17.5c0.8-0.6,1.8-1,2.7-1.4
				c4.2-1.6,8.5-3.3,12.7-4.8c0.5-0.2,1.3-0.2,1.8,0.1c66.4,29.8,132.8,59.7,199.2,89.5c0.5,0.2,1,0.7,1.2,1.2
				c4.5,11.7,8.9,23.4,13.3,35.1c1.6,4.2,2.1,8.7,0.9,13.1c-1.6,6.1-6.2,9.4-12.9,9.4c-3.8,0-7.3-1.1-10.7-2.6
				c-18.2-7.9-36.5-15.9-54.7-23.8c-21.1-9.2-42.1-18.3-63.2-27.5c-1.2-0.5-2.2-0.5-3.4-0.1c-14.5,5.6-29,11-43.5,16.6
				c-7.9,3-15.9-0.5-18.9-8.4c-2.2-5.8-4.4-11.6-6.6-17.4C1298.9,1385.9,1296.1,1378.6,1293.3,1371.2z"/>
		</g>
	</g>
</g>
<g id="Viewport">
</g>
<g id="Webkit">
</g>
</svg>
