<svg xmlns="http://www.w3.org/2000/svg" viewBox="0 0 101.48 523.2"><defs><style>.cls-1{fill:#eee;}</style></defs><title>Portfolio-TitleDummyAsset 1(T1)</title><g id="Layer_2" data-name="Layer 2"><g id="TEST"><path class="cls-1" d="M71.85,1.42V16.94H1.35V1.42ZM101.48,0V18.39H86V0Z"/><path class="cls-1" d="M47.79,99.16H1.35V83.68H44.76c13.12,0,16.64-6.88,16.64-14.56,0-9.76-5.17-17.59-18.33-17.65H1.35V36h70.5V49.69l-12.1,1.25c8.87,4,13.48,11.78,13.48,22.51C73.23,88.9,65.19,99.16,47.79,99.16Z"/><path class="cls-1" d="M71.85,173.38,1.35,149.12V129.92l70.5-24v16.2L12.19,139.48,71.85,157Z"/><path class="cls-1" d="M36.16,193.2c-17-.3-24.55,7.33-24.55,21.36,0,9.55,3.59,17.74,12.52,17.74a12.93,12.93,0,0,0,2.54-.24v13.59c-.76.06-1.52.09-2.34.09C7.94,245.73,0,232.29,0,214.52c0-23.17,13.48-36.37,36.42-36.37,23.27,0,36.85,13.58,36.85,35.27,0,19.75-11.3,32.81-33.42,32.81l-3.69-.18Zm8.7.36v37.58c12-.24,17.8-6.73,17.8-18.15C62.65,201.8,57.05,195.15,44.86,193.55Z"/><path class="cls-1" d="M18.29,256.73a22.32,22.32,0,0,1,4.32.45V273a11.77,11.77,0,0,0-3.86-.71c-6.23,0-8.64,6.91-8.64,14.51,0,8.66,2.83,15.25,11.11,15s9.1-7.59,10.28-17.74c1.42-12.16,3.3-26.46,19.64-26.46,15.13,0,22.18,11.54,22.18,28.45,0,13.29-4.58,27.17-16.64,27.17a22.77,22.77,0,0,1-4.65-.53l.07-14.36a9.59,9.59,0,0,0,3.33.62c5.8,0,8.5-6.29,8.5-13.32,0-7.74-3-13.91-10.55-13.91-8.27,0-8.6,8.93-9.85,19-1.42,11.78-4.22,25.9-20.63,25.9C7.09,316.65,0,304.43,0,286.1,0,273.29,3.66,256.73,18.29,256.73Z"/><path class="cls-1" d="M19.87,335.1H61.93V321h9.92V335.7l20.2,3v12H71.85v18.75H61.93V350.62H23.17c-7.55,0-11.34,3.44-11.34,9.31a23.86,23.86,0,0,0,2.34,9.43H2.44A48.67,48.67,0,0,1,.1,355.25C.1,343.11,6.56,335.1,19.87,335.1Z"/><path class="cls-1" d="M36.16,392.32c-17-.3-24.55,7.33-24.55,21.36,0,9.55,3.59,17.74,12.52,17.74a12.93,12.93,0,0,0,2.54-.24v13.59c-.76.06-1.52.09-2.34.09C7.94,444.86,0,431.42,0,413.65c0-23.17,13.48-36.37,36.42-36.37,23.27,0,36.85,13.59,36.85,35.27,0,19.75-11.3,32.81-33.42,32.81l-3.69-.18Zm8.7.36v37.58c12-.24,17.8-6.73,17.8-18.15C62.65,400.93,57.05,394.28,44.86,392.68Z"/><path class="cls-1" d="M36.68,454.85c22.38,0,36.55,13.38,36.55,36.52C73.23,509,65.36,523,47.82,523c-1,0-1.45-.06-2.93-.18V508c.92.12,1.78.12,2.64.15,10.32.3,14.07-8.3,14.07-17,0-14.12-9.46-21.45-24.88-21.45s-25,7.68-25,20.68c0,9.7,4.61,18,16.22,18a21.32,21.32,0,0,0,2.37-.18v14.92c-1,.06-1.22.06-1.88.06C9.23,523.2.07,508.93.07,490.54.07,469,13.91,454.85,36.68,454.85Z"/></g></g></svg>