<svg xmlns="http://www.w3.org/2000/svg" viewBox="0 0 121.68 409.8"><defs><style>.cls-1{fill:#eee;}</style></defs><title>Portfolio-TitleDummyAsset 8(T1)</title><g id="Layer_2" data-name="Layer 2"><g id="TEST"><path class="cls-1" d="M49.5,14.06H91.56V0h9.92V14.65l20.2,3v12h-20.2V48.32H91.56V29.57H52.8c-7.55,0-11.34,3.44-11.34,9.31a23.86,23.86,0,0,0,2.34,9.43H32.07A48.67,48.67,0,0,1,29.73,34.2C29.73,22.07,36.19,14.06,49.5,14.06Z"/><path class="cls-1" d="M66.31,56.09c22.64,0,36.55,14.15,36.55,35.77,0,21.86-13.91,35.8-36.55,35.8-22.81,0-36.68-14-36.68-35.8C29.63,70.36,43.51,56.09,66.31,56.09Zm0,56.54c15.46,0,24.92-7.68,24.92-20.88,0-13-9.46-20.47-24.92-20.47s-25,7.5-25,20.47C41.3,104.95,50.79,112.63,66.31,112.63Z"/><path class="cls-1" d="M101.48,200.67,21,171c-11-4-21-8.37-21-22.48a57,57,0,0,1,1.29-10.95H13A42.17,42.17,0,0,0,11.83,146c0,9,6.39,10.77,13.78,13.05l1.42.42,74.45-27.32V149l-57,17.15,57,18.66Z"/><path class="cls-1" d="M66.31,205.15c22.64,0,36.55,14.15,36.55,35.77,0,21.86-13.91,35.8-36.55,35.8-22.81,0-36.68-14-36.68-35.8C29.63,219.42,43.51,205.15,66.31,205.15Zm0,56.54c15.46,0,24.92-7.68,24.92-20.88,0-13-9.46-20.47-24.92-20.47s-25,7.5-25,20.47C41.3,254,50.79,261.69,66.31,261.69Z"/><path class="cls-1" d="M49.5,295.09H91.56V281h9.92v14.65l20.2,3v12h-20.2v18.75H91.56V310.6H52.8c-7.55,0-11.34,3.44-11.34,9.31a23.86,23.86,0,0,0,2.34,9.43H32.07a48.67,48.67,0,0,1-2.34-14.12C29.73,303.1,36.19,295.09,49.5,295.09Z"/><path class="cls-1" d="M42.12,409.8H31a50.67,50.67,0,0,1-1.19-9.91c0-10.35,5.47-13.62,15.89-14.68C35.89,380.9,29.56,372.6,29.56,360c0-11.81,5.31-22.54,19.87-22.54,14.9,0,23.3,12.1,25.25,33.73a120.56,120.56,0,0,1,.49,12.25h4.68c9.52,0,13-7.09,13-14.89s-3.53-14.3-10.12-14.3a13.29,13.29,0,0,0-4.32.77V341.48a32.26,32.26,0,0,1,5.17-.45c14.3,0,19.18,11.54,19.18,28.33,0,17-6.56,28.77-26.37,28.77H53.79c-8.11,0-12.72,1.45-12.72,6.7A14.41,14.41,0,0,0,42.12,409.8ZM67,384.11a55.76,55.76,0,0,0-.66-11.63c-1.22-12.75-6.39-20.2-15.46-20.2-7.81,0-11.21,5.37-11.21,12.55C39.65,378.86,52.44,384.11,67,384.11Z"/></g></g></svg>