<svg xmlns="http://www.w3.org/2000/svg" viewBox="0 0 101.55 413.15"><defs><style>.cls-1{fill:#eee;}</style></defs><title>Portfolio-TitleDummyAsset 9(T1)</title><g id="Layer_2" data-name="Layer 2"><g id="TEST"><path class="cls-1" d="M12.56,72.32H1.42A50.67,50.67,0,0,1,.23,62.41C.23,52.06,5.7,48.8,16.12,47.73,6.33,43.43,0,35.12,0,22.54,0,10.74,5.31,0,19.87,0c14.9,0,23.3,12.1,25.25,33.73A120.56,120.56,0,0,1,45.62,46H50.3c9.52,0,13-7.09,13-14.89s-3.53-14.3-10.12-14.3a13.29,13.29,0,0,0-4.32.77V4A32.26,32.26,0,0,1,54,3.56c14.3,0,19.18,11.54,19.18,28.33,0,17-6.56,28.77-26.37,28.77H24.23c-8.11,0-12.72,1.45-12.72,6.7A14.41,14.41,0,0,0,12.56,72.32ZM37.41,46.63A55.76,55.76,0,0,0,36.75,35c-1.22-12.75-6.39-20.2-15.46-20.2-7.81,0-11.21,5.37-11.21,12.55C10.09,41.38,22.87,46.63,37.41,46.63Z"/><path class="cls-1" d="M101.55,144.88H1.42v-12.7l12.89-1.81A24.12,24.12,0,0,1,.07,108.09c0-18.75,14-30.23,36.75-30.23,22.58,0,36.72,11.36,36.72,30.23a23.41,23.41,0,0,1-12.62,21.36l40.64.06Zm-64.73-14c14.73,0,24.55-7.06,24.55-19.07,0-12.52-9.29-18.75-24.55-18.75s-24.52,6.23-24.52,18.75C12.29,123.87,22,130.9,36.82,130.9Z"/><path class="cls-1" d="M71.92,164v15.51H1.42V164Zm29.63-1.42v18.39H86.06V162.55Z"/><path class="cls-1" d="M101.55,260.74H1.42V248l12.89-1.81A24.12,24.12,0,0,1,.07,224c0-18.75,14-30.23,36.75-30.23,22.58,0,36.72,11.36,36.72,30.23a23.41,23.41,0,0,1-12.62,21.36l40.64.06Zm-64.73-14c14.73,0,24.55-7.06,24.55-19.07,0-12.52-9.29-18.75-24.55-18.75s-24.52,6.23-24.52,18.75C12.29,239.74,22,246.77,36.82,246.77Z"/><path class="cls-1" d="M12.56,347.18H1.42a50.66,50.66,0,0,1-1.19-9.91c0-10.35,5.47-13.62,15.89-14.68C6.33,318.29,0,310,0,297.4c0-11.81,5.31-22.54,19.87-22.54,14.9,0,23.3,12.1,25.25,33.73a120.56,120.56,0,0,1,.49,12.25H50.3c9.52,0,13-7.09,13-14.89s-3.53-14.3-10.12-14.3a13.29,13.29,0,0,0-4.32.77V278.86a32.26,32.26,0,0,1,5.17-.45c14.3,0,19.18,11.54,19.18,28.33,0,17-6.56,28.77-26.37,28.77H24.23c-8.11,0-12.72,1.45-12.72,6.7A14.41,14.41,0,0,0,12.56,347.18Zm24.85-25.69a55.76,55.76,0,0,0-.66-11.63c-1.22-12.75-6.39-20.2-15.46-20.2-7.81,0-11.21,5.37-11.21,12.55C10.09,316.24,22.87,321.49,37.41,321.49Z"/><path class="cls-1" d="M18.36,353.23a22.32,22.32,0,0,1,4.32.45v15.78a11.77,11.77,0,0,0-3.86-.71c-6.23,0-8.64,6.91-8.64,14.5,0,8.66,2.83,15.25,11.11,15s9.1-7.59,10.28-17.74c1.42-12.16,3.3-26.46,19.64-26.46,15.13,0,22.18,11.54,22.18,28.45,0,13.29-4.58,27.17-16.64,27.17a22.77,22.77,0,0,1-4.65-.53l.07-14.36a9.59,9.59,0,0,0,3.33.62c5.8,0,8.5-6.29,8.5-13.32,0-7.74-3-13.91-10.55-13.91-8.27,0-8.6,8.93-9.85,19C42.19,399,39.39,413.15,23,413.15,7.15,413.15.1,400.93.1,382.59.1,369.78,3.72,353.23,18.36,353.23Z"/></g></g></svg>