<svg xmlns="http://www.w3.org/2000/svg" viewBox="0 0 101.48 377.58"><defs><style>.cls-1{fill:#eee;}</style></defs><title>Portfolio-TitleDummyAsset 2(T1)</title><g id="Layer_2" data-name="Layer 2"><g id="TEST"><path class="cls-1" d="M47.79,63.18H1.35V47.7H44.76c13.12,0,16.64-6.88,16.64-14.56,0-9.76-5.17-17.59-18.33-17.65H1.35V0h70.5V13.71L59.75,15c8.87,4,13.48,11.78,13.48,22.51C73.23,52.92,65.19,63.18,47.79,63.18Z"/><path class="cls-1" d="M36.16,90.68C19.18,90.38,11.6,98,11.6,112c0,9.55,3.59,17.74,12.52,17.74a12.93,12.93,0,0,0,2.54-.24v13.59c-.76.06-1.52.09-2.34.09C7.94,143.21,0,129.78,0,112,0,88.84,13.48,75.64,36.42,75.64c23.27,0,36.85,13.58,36.85,35.27,0,19.75-11.3,32.81-33.42,32.81l-3.69-.18Zm8.7.36v37.58c12-.24,17.8-6.73,17.8-18.15C62.65,99.28,57.05,92.64,44.86,91Z"/><path class="cls-1" d="M18.29,154.22a22.32,22.32,0,0,1,4.32.45v15.78a11.77,11.77,0,0,0-3.86-.71c-6.23,0-8.64,6.91-8.64,14.51,0,8.66,2.83,15.25,11.11,15s9.1-7.59,10.28-17.74c1.42-12.16,3.3-26.46,19.64-26.46,15.13,0,22.18,11.54,22.18,28.45,0,13.29-4.58,27.17-16.64,27.17a22.77,22.77,0,0,1-4.65-.53l.07-14.36a9.59,9.59,0,0,0,3.33.62c5.8,0,8.5-6.29,8.5-13.32,0-7.74-3-13.91-10.55-13.91-8.27,0-8.6,8.93-9.85,19-1.42,11.78-4.22,25.9-20.63,25.9C7.09,214.14,0,201.92,0,183.58,0,170.77,3.66,154.22,18.29,154.22Z"/><path class="cls-1" d="M19.87,232.59H61.93V218.53h9.92v14.65l20.2,3v12H71.85v18.75H61.93V248.1H23.17c-7.55,0-11.34,3.44-11.34,9.31a23.86,23.86,0,0,0,2.34,9.43H2.44A48.67,48.67,0,0,1,.1,252.73C.1,240.6,6.56,232.59,19.87,232.59Z"/><path class="cls-1" d="M101.48,280v15.57H1.35V280Z"/><path class="cls-1" d="M36.16,324.54c-17-.3-24.55,7.33-24.55,21.36,0,9.55,3.59,17.74,12.52,17.74a12.93,12.93,0,0,0,2.54-.24V377c-.76.06-1.52.09-2.34.09C7.94,377.08,0,363.64,0,345.87c0-23.17,13.48-36.37,36.42-36.37,23.27,0,36.85,13.58,36.85,35.27,0,19.75-11.3,32.81-33.42,32.81l-3.69-.18Zm8.7.36v37.58c12-.24,17.8-6.73,17.8-18.15C62.65,333.15,57.05,326.5,44.86,324.9Z"/></g></g></svg>