<svg xmlns="http://www.w3.org/2000/svg" viewBox="0 0 101.55 543.96"><defs><style>.cls-1{fill:#eee;}</style></defs><title>Portfolio-TitleDummyAsset 7(T1)</title><g id="Layer_2" data-name="Layer 2"><g id="TEST"><path class="cls-1" d="M47.86,63.18H1.42V47.7H44.82c13.12,0,16.64-6.88,16.64-14.56,0-9.76-5.17-17.59-18.33-17.65H1.42V0h70.5V13.71L59.82,15C68.69,19,73.3,26.73,73.3,37.46,73.3,52.92,65.26,63.18,47.86,63.18Z"/><path class="cls-1" d="M36.22,90.68c-17-.3-24.55,7.33-24.55,21.36,0,9.55,3.59,17.74,12.52,17.74a12.93,12.93,0,0,0,2.54-.24v13.59c-.76.06-1.52.09-2.34.09C8,143.21.07,129.78.07,112c0-23.17,13.48-36.37,36.42-36.37,23.27,0,36.85,13.58,36.85,35.27,0,19.75-11.3,32.81-33.42,32.81l-3.69-.18Zm8.7.36v37.58c12-.24,17.8-6.73,17.8-18.15C62.72,99.28,57.12,92.64,44.92,91Z"/><path class="cls-1" d="M101.55,220.72H1.42V208l12.89-1.81A24.12,24.12,0,0,1,.07,183.94c0-18.75,14-30.23,36.75-30.23,22.58,0,36.72,11.36,36.72,30.23A23.41,23.41,0,0,1,60.91,205.3l40.64.06Zm-64.73-14c14.73,0,24.55-7.06,24.55-19.07,0-12.52-9.29-18.75-24.55-18.75s-24.52,6.23-24.52,18.75C12.29,199.72,22,206.75,36.82,206.75Z"/><path class="cls-1" d="M36.82,306.89C14.07,306.89.07,295.42.07,276.67a24.22,24.22,0,0,1,14.17-22.28L1.42,252.67V239.89H101.55v15.37l-40.61.06a23.37,23.37,0,0,1,12.59,21.36C73.53,295.56,59.39,306.89,36.82,306.89Zm0-15.19c15.26,0,24.55-6.26,24.55-18.75,0-12.07-9.82-19.1-24.55-19.1s-24.52,7-24.52,19.1C12.29,285.45,21.52,291.71,36.82,291.71Z"/><path class="cls-1" d="M12.56,388.5H1.42a50.67,50.67,0,0,1-1.19-9.91c0-10.35,5.47-13.62,15.89-14.68C6.33,359.61,0,351.3,0,338.72c0-11.81,5.31-22.54,19.87-22.54,14.9,0,23.3,12.1,25.25,33.73a120.56,120.56,0,0,1,.49,12.25H50.3c9.52,0,13-7.09,13-14.89S59.75,333,53.16,333a13.29,13.29,0,0,0-4.32.77V320.18a32.26,32.26,0,0,1,5.17-.45c14.3,0,19.18,11.54,19.18,28.33,0,17-6.56,28.77-26.37,28.77H24.23c-8.11,0-12.72,1.45-12.72,6.7A14.41,14.41,0,0,0,12.56,388.5Zm24.85-25.69a55.76,55.76,0,0,0-.66-11.63C35.53,338.43,30.36,331,21.29,331c-7.81,0-11.21,5.37-11.21,12.55C10.09,357.56,22.87,362.81,37.41,362.81Z"/><path class="cls-1" d="M47.86,462H1.42V446.55H44.82c13.12,0,16.64-6.88,16.64-14.56,0-9.76-5.17-17.59-18.33-17.65H1.42V398.85h70.5v13.71l-12.1,1.25c8.87,4,13.48,11.78,13.48,22.51C73.3,451.77,65.26,462,47.86,462Z"/><path class="cls-1" d="M101.55,479.74v15.57H44.66L71.92,521.6v18.48L52.5,519.58,1.42,544V526.55l40.87-18.07L29.73,495.31H1.42V479.74Z"/></g></g></svg>