<svg xmlns="http://www.w3.org/2000/svg" viewBox="0 0 73.33 304.14"><defs><style>.cls-1{fill:#eee;}</style></defs><title>Portfolio-TitleDummyAsset 4(T1)</title><g id="Layer_2" data-name="Layer 2"><g id="TEST"><path class="cls-1" d="M12.56,72.32H1.42A50.67,50.67,0,0,1,.23,62.41C.23,52.06,5.7,48.8,16.12,47.73,6.33,43.43,0,35.12,0,22.54,0,10.74,5.31,0,19.87,0c14.9,0,23.3,12.1,25.25,33.73A120.56,120.56,0,0,1,45.62,46H50.3c9.52,0,13-7.09,13-14.89s-3.53-14.3-10.12-14.3a13.29,13.29,0,0,0-4.32.77V4A32.26,32.26,0,0,1,54,3.56c14.3,0,19.18,11.54,19.18,28.33,0,17-6.56,28.77-26.37,28.77H24.23c-8.11,0-12.72,1.45-12.72,6.7A14.41,14.41,0,0,0,12.56,72.32ZM37.41,46.63A55.76,55.76,0,0,0,36.75,35c-1.22-12.75-6.39-20.2-15.46-20.2-7.81,0-11.21,5.37-11.21,12.55C10.09,41.38,22.87,46.63,37.41,46.63Z"/><path class="cls-1" d="M36.75,77.36c22.38,0,36.55,13.38,36.55,36.52,0,17.68-7.88,31.62-25.41,31.62-1,0-1.45-.06-2.93-.18V130.55c.92.12,1.78.12,2.64.15,10.32.3,14.07-8.31,14.07-17,0-14.12-9.46-21.45-24.88-21.45s-25,7.68-25,20.67c0,9.7,4.61,18,16.22,18a21.32,21.32,0,0,0,2.37-.18v14.92c-1,.06-1.22.06-1.88.06C9.29,145.71.13,131.44.13,113,.13,91.48,14,77.36,36.75,77.36Z"/><path class="cls-1" d="M47.86,223.6H1.42V208.12H44.82c13.12,0,16.64-6.88,16.64-14.56,0-9.76-5.17-17.59-18.33-17.65H1.42V160.42h70.5v13.71l-12.1,1.25c8.87,4,13.48,11.78,13.48,22.51C73.3,213.34,65.26,223.6,47.86,223.6Z"/><path class="cls-1" d="M36.22,251.1c-17-.3-24.55,7.33-24.55,21.36,0,9.55,3.59,17.74,12.52,17.74a12.93,12.93,0,0,0,2.54-.24v13.59c-.76.06-1.52.09-2.34.09C8,303.63.07,290.19.07,272.43c0-23.17,13.48-36.37,36.42-36.37,23.27,0,36.85,13.59,36.85,35.27,0,19.75-11.3,32.81-33.42,32.81L36.22,304Zm8.7.36V289c12-.24,17.8-6.73,17.8-18.15C62.72,259.7,57.12,253.06,44.92,251.45Z"/></g></g></svg>