<svg xmlns="http://www.w3.org/2000/svg" viewBox="0 0 101.55 379.81"><defs><style>.cls-1{fill:#eee;}</style></defs><title>Portfolio-TitleDummyAsset 5(T1)</title><g id="Layer_2" data-name="Layer 2"><g id="TEST"><path class="cls-1" d="M36.75,0C59.13,0,73.3,13.38,73.3,36.52c0,17.68-7.88,31.62-25.41,31.62-1,0-1.45-.06-2.93-.18V53.19c.92.12,1.78.12,2.64.15,10.32.3,14.07-8.31,14.07-17,0-14.12-9.46-21.45-24.88-21.45s-25,7.68-25,20.67c0,9.7,4.61,18,16.22,18a21.32,21.32,0,0,0,2.37-.18V68.28c-1,.06-1.22.06-1.88.06C9.29,68.34.13,54.08.13,35.68.13,14.12,14,0,36.75,0Z"/><path class="cls-1" d="M12.56,150.39H1.42a50.66,50.66,0,0,1-1.19-9.91c0-10.35,5.47-13.62,15.89-14.68C6.33,121.5,0,113.19,0,100.62,0,88.81,5.31,78.07,19.87,78.07c14.9,0,23.3,12.1,25.25,33.73a120.56,120.56,0,0,1,.49,12.25H50.3c9.52,0,13-7.09,13-14.89s-3.53-14.3-10.12-14.3a13.29,13.29,0,0,0-4.32.77V82.08A32.26,32.26,0,0,1,54,81.63c14.3,0,19.18,11.54,19.18,28.33,0,17-6.56,28.77-26.37,28.77H24.23c-8.11,0-12.72,1.45-12.72,6.7A14.41,14.41,0,0,0,12.56,150.39ZM37.41,124.7a55.76,55.76,0,0,0-.66-11.63c-1.22-12.75-6.39-20.2-15.46-20.2-7.81,0-11.21,5.37-11.21,12.55C10.09,119.45,22.87,124.7,37.41,124.7Z"/><path class="cls-1" d="M18.36,156.44a22.32,22.32,0,0,1,4.32.45v15.78a11.77,11.77,0,0,0-3.86-.71c-6.23,0-8.64,6.91-8.64,14.5,0,8.66,2.83,15.25,11.11,15s9.1-7.59,10.28-17.74C33,171.6,34.87,157.3,51.22,157.3c15.13,0,22.18,11.54,22.18,28.45,0,13.29-4.58,27.17-16.64,27.17a22.77,22.77,0,0,1-4.65-.53L52.17,198a9.59,9.59,0,0,0,3.33.62c5.8,0,8.5-6.29,8.5-13.32,0-7.74-3-13.91-10.55-13.91-8.27,0-8.6,8.93-9.85,19-1.42,11.78-4.22,25.9-20.63,25.9C7.15,216.36.1,204.14.1,185.81.1,173,3.72,156.44,18.36,156.44Z"/><path class="cls-1" d="M19.94,234.81H62V220.75h9.92v14.65l20.2,3v12H71.92v18.75H62V250.33H23.24c-7.55,0-11.34,3.44-11.34,9.31a23.86,23.86,0,0,0,2.34,9.43H2.5A48.67,48.67,0,0,1,.17,255C.17,242.82,6.63,234.81,19.94,234.81Z"/><path class="cls-1" d="M101.55,282.24v15.57H1.42V282.24Z"/><path class="cls-1" d="M36.22,326.77c-17-.3-24.55,7.33-24.55,21.36,0,9.55,3.59,17.74,12.52,17.74a12.93,12.93,0,0,0,2.54-.24v13.59c-.76.06-1.52.09-2.34.09C8,379.3.07,365.86.07,348.1c0-23.17,13.48-36.37,36.42-36.37,23.27,0,36.85,13.59,36.85,35.27,0,19.75-11.3,32.81-33.42,32.81l-3.69-.18Zm8.7.36v37.58c12-.24,17.8-6.73,17.8-18.15C62.72,335.37,57.12,328.73,44.92,327.12Z"/></g></g></svg>