<svg xmlns="http://www.w3.org/2000/svg" viewBox="0 0 129.83 635.5"><defs><style>.cls-1{fill:#eee;}</style></defs><title>Portfolio-TitleDummyAsset 3(T1)</title><g id="Layer_2" data-name="Layer 2"><g id="TEST"><path class="cls-1" d="M76.13,63.18H29.7V47.7H73.1c13.12,0,16.64-6.88,16.64-14.56,0-9.76-5.17-17.59-18.33-17.65H29.7V0h70.5V13.71L88.1,15c8.87,4,13.48,11.78,13.48,22.51C101.58,52.92,93.54,63.18,76.13,63.18Z"/><path class="cls-1" d="M100.2,80.83V96.35H29.7V80.83Zm29.63-1.42V97.8H114.33V79.41Z"/><path class="cls-1" d="M129.83,115.45V131H72.94L100.2,157.3v18.48l-19.41-20.5L29.7,179.67V162.26l40.87-18.06L58,131H29.7V115.45Z"/><path class="cls-1" d="M64.5,198.77c-17-.3-24.55,7.33-24.55,21.36,0,9.55,3.59,17.74,12.52,17.74a12.93,12.93,0,0,0,2.54-.24v13.59c-.76.06-1.52.09-2.34.09-16.38,0-24.32-13.44-24.32-31.21,0-23.17,13.48-36.37,36.42-36.37,23.27,0,36.85,13.58,36.85,35.27,0,19.75-11.3,32.81-33.42,32.81l-3.69-.18Zm8.7.36v37.58c12-.24,17.8-6.73,17.8-18.15C91,207.38,85.4,200.73,73.2,199.13Z"/><path class="cls-1" d="M46.64,294.61a22.32,22.32,0,0,1,4.32.45v15.78a11.77,11.77,0,0,0-3.86-.71c-6.23,0-8.64,6.91-8.64,14.5,0,8.66,2.83,15.25,11.11,15s9.1-7.59,10.28-17.74c1.42-12.16,3.3-26.46,19.64-26.46,15.13,0,22.18,11.54,22.18,28.45,0,13.29-4.58,27.17-16.64,27.17a22.77,22.77,0,0,1-4.65-.53l.07-14.36a9.59,9.59,0,0,0,3.33.62c5.8,0,8.5-6.29,8.5-13.32,0-7.74-3-13.91-10.55-13.91-8.27,0-8.6,8.93-9.85,19-1.42,11.78-4.22,25.9-20.63,25.9-15.82,0-22.87-12.22-22.87-30.55C28.38,311.17,32,294.61,46.64,294.61Z"/><path class="cls-1" d="M64.9,435.34c-22.87,0-36.78-11.21-36.78-30.49,0-9.88,5.37-17,12.59-21H0V368.42H100.2v12.7l-12.72,1.81a24.14,24.14,0,0,1,14.11,21.92C101.58,424.12,87.67,435.34,64.9,435.34Zm0-15.1c15.92,0,24.75-6.2,24.75-19,0-11.69-9.76-18.9-24.75-18.9-14.77,0-24.55,7.21-24.55,18.9C40.34,414,49.24,420.24,64.9,420.24Z"/><path class="cls-1" d="M65,444.29c22.64,0,36.55,14.15,36.55,35.77,0,21.86-13.91,35.8-36.55,35.8-22.81,0-36.68-14-36.68-35.8C28.34,458.56,42.22,444.29,65,444.29Zm0,56.54c15.46,0,24.92-7.68,24.92-20.88,0-13-9.46-20.47-24.92-20.47S40,467,40,479.95C40,493.15,49.5,500.83,65,500.83Z"/><path class="cls-1" d="M80.55,581a50.08,50.08,0,0,1-11.4-1.42V565.14a30.94,30.94,0,0,0,9.23,1.51c6.56,0,11.37-2.76,11.37-9.29,0-5.46-3.66-12.4-17.34-12.43H29.7V529.6h70.5v13l-12.16,2c9.06,3.8,13.55,10,13.55,18.27C101.58,575.17,92.94,581,80.55,581Z"/><path class="cls-1" d="M48.22,601.24H90.27V587.18h9.92v14.65l20.2,3v12H100.2V635.5H90.27V616.75H51.51c-7.55,0-11.34,3.44-11.34,9.31a23.86,23.86,0,0,0,2.34,9.43H30.78a48.67,48.67,0,0,1-2.34-14.12C28.44,609.25,34.9,601.24,48.22,601.24Z"/></g></g></svg>