<svg xmlns="http://www.w3.org/2000/svg" viewBox="0 0 101.48 640.46"><defs><style>.cls-1{fill:#eee;}</style></defs><title>Portfolio-TitleDummyAsset 6(T1)</title><g id="Layer_2" data-name="Layer 2"><g id="TEST"><path class="cls-1" d="M19.87,14.06H61.93V0h9.92V14.65l20.2,3v12H71.85V48.32H61.93V29.57H23.17c-7.55,0-11.34,3.44-11.34,9.31a23.86,23.86,0,0,0,2.34,9.43H2.44A48.67,48.67,0,0,1,.1,34.2C.1,22.07,6.56,14.06,19.87,14.06Z"/><path class="cls-1" d="M52.21,112.84a50.08,50.08,0,0,1-11.4-1.42V97A30.94,30.94,0,0,0,50,98.48c6.56,0,11.37-2.76,11.37-9.29,0-5.46-3.66-12.4-17.34-12.43H1.35V61.43h70.5v13l-12.16,2c9.06,3.8,13.55,10,13.55,18.27C73.23,107,64.6,112.84,52.21,112.84Z"/><path class="cls-1" d="M71.85,185.75H1.35v-12.7l11.54-1.66C4.78,167.42,0,159.68,0,148.91c0-15.63,8.63-25.57,24.42-25.57H71.85v15.25h-45c-10.84,0-15,6.82-15,14.86,0,9.28,5.14,17.09,18.36,17.17H71.85Z"/><path class="cls-1" d="M71.85,293.55,1.35,277.08V258l54.91-12.78L1.35,232.71V213.57l70.5-16.4v16.08L13.71,224.52l58.14,12.7v16l-58.24,13,58.24,11.3Z"/><path class="cls-1" d="M36.68,299.63c22.64,0,36.55,14.15,36.55,35.77,0,21.86-13.91,35.8-36.55,35.8C13.88,371.2,0,357.2,0,335.4,0,313.89,13.88,299.63,36.68,299.63Zm0,56.54c15.46,0,24.92-7.68,24.92-20.88,0-13-9.46-20.47-24.92-20.47s-25,7.5-25,20.47C11.67,348.48,21.16,356.17,36.68,356.17Z"/><path class="cls-1" d="M52.21,436.34a50.08,50.08,0,0,1-11.4-1.42V420.47A30.94,30.94,0,0,0,50,422c6.56,0,11.37-2.76,11.37-9.29,0-5.46-3.66-12.4-17.34-12.43H1.35V384.94h70.5v13l-12.16,2c9.06,3.8,13.55,10,13.55,18.27C73.23,430.5,64.6,436.34,52.21,436.34Z"/><path class="cls-1" d="M19.87,456.57H61.93V442.51h9.92v14.65l20.2,3v12H71.85v18.75H61.93V472.09H23.17c-7.55,0-11.34,3.44-11.34,9.31a23.86,23.86,0,0,0,2.34,9.43H2.44A48.67,48.67,0,0,1,.1,476.72C.1,464.58,6.56,456.57,19.87,456.57Z"/><path class="cls-1" d="M47.79,567.19H1.35V551.7H45.42c12.46,0,16-6.88,16-14.56,0-9.76-5.17-17.65-18.33-17.65H1.35V504H101.48v15.48H60.88c8.11,4.18,12.36,11.69,12.36,22C73.23,556.92,65.19,567.19,47.79,567.19Z"/><path class="cls-1" d="M18.29,580.54a22.32,22.32,0,0,1,4.32.45v15.78a11.77,11.77,0,0,0-3.86-.71c-6.23,0-8.64,6.91-8.64,14.51,0,8.66,2.83,15.25,11.11,15s9.1-7.59,10.28-17.74c1.42-12.16,3.3-26.46,19.64-26.46,15.13,0,22.18,11.54,22.18,28.45,0,13.29-4.58,27.17-16.64,27.17a22.77,22.77,0,0,1-4.65-.53l.07-14.36a9.59,9.59,0,0,0,3.33.62c5.8,0,8.5-6.29,8.5-13.32,0-7.74-3-13.91-10.55-13.91-8.27,0-8.6,8.93-9.85,19-1.42,11.78-4.22,25.9-20.63,25.9C7.09,640.46,0,628.23,0,609.9,0,597.09,3.66,580.54,18.29,580.54Z"/></g></g></svg>